inDegrees=no
num_controls=7
num_derivatives=13
num_iterations=198
num_multipliers=7
num_parameters=0
num_slacks=7
num_states=26
objective=5.255245
objective_accelerations=0.700378
objective_balance=0.024244
objective_effort=0.176476
objective_height=4.328631
objective_ligament=0.025516
solver_duration=2343.365761
status=Solve_Succeeded
success=true
DataType=double
version=3
OpenSimVersion=4.4-2022-07-23-0e9fedc
endheader
time	/jointset/ground_pelvis/pelvis_tilt/value	/jointset/ground_pelvis/pelvis_tx/value	/jointset/ground_pelvis/pelvis_ty/value	/jointset/hip_l/hip_flexion_l/value	/jointset/hip_l/hip_adduction_l/value	/jointset/hip_l/hip_rotation_l/value	/jointset/back/lumbar_extension/value	/jointset/patellofemoral_l/patellar_flexion_l/value	/jointset/knee_l/knee_flexion_l/value	/jointset/knee_l/knee_adduction_l/value	/jointset/knee_l/knee_rotation_l/value	/jointset/ankle_l/ankle_angle_l/value	/jointset/subtalar_l/subtalar_angle_l/value	/jointset/ground_pelvis/pelvis_tilt/speed	/jointset/ground_pelvis/pelvis_tx/speed	/jointset/ground_pelvis/pelvis_ty/speed	/jointset/hip_l/hip_flexion_l/speed	/jointset/hip_l/hip_adduction_l/speed	/jointset/hip_l/hip_rotation_l/speed	/jointset/back/lumbar_extension/speed	/jointset/patellofemoral_l/patellar_flexion_l/speed	/jointset/knee_l/knee_flexion_l/speed	/jointset/knee_l/knee_adduction_l/speed	/jointset/knee_l/knee_rotation_l/speed	/jointset/ankle_l/ankle_angle_l/speed	/jointset/subtalar_l/subtalar_angle_l/speed	/forceset/tau_hip_flexion_l	/forceset/tau_hip_adduction_l	/forceset/tau_hip_rotation_l	/forceset/tau_knee_flexion_l	/forceset/tau_ankle_angle_l	/forceset/tau_subtalar_angle_l	/forceset/tau_lumbar_extension	lambda_cid13_p0	lambda_cid13_p1	lambda_cid13_p2	lambda_cid13_p3	lambda_cid13_p4	lambda_cid13_p5	lambda_cid14_p0	/jointset/ground_pelvis/pelvis_tilt/accel	/jointset/ground_pelvis/pelvis_tx/accel	/jointset/ground_pelvis/pelvis_ty/accel	/jointset/hip_l/hip_flexion_l/accel	/jointset/hip_l/hip_adduction_l/accel	/jointset/hip_l/hip_rotation_l/accel	/jointset/back/lumbar_extension/accel	/jointset/patellofemoral_l/patellar_flexion_l/accel	/jointset/knee_l/knee_flexion_l/accel	/jointset/knee_l/knee_adduction_l/accel	/jointset/knee_l/knee_rotation_l/accel	/jointset/ankle_l/ankle_angle_l/accel	/jointset/subtalar_l/subtalar_angle_l/accel	gamma_cid13_p0	gamma_cid13_p1	gamma_cid13_p2	gamma_cid13_p3	gamma_cid13_p4	gamma_cid13_p5	gamma_cid14_p0
0.5	-0.2188431890807272	0.04102361825934884	0.7770160948344851	0.9662940688337348	-0.368376797349426	0.0002206071030684755	-0.3992597867340526	0.940523647541299	0.9405236475412957	-0.05003723413692401	-0.1745324303428464	0.3191059771281418	0.1589473073721479	-0.7568508520074002	-0.1619909209868662	-0.5010296108035214	2.337830845356837	0.03901593410523804	0.5442322323045143	-0.3109283466507044	1.946926615149509	1.946926615149513	0.28895716405525	-1.858755489165203e-05	0.5297444869781325	0.2724087763275578	-0.1043667360690791	0.02190810684407552	0.001970296441856869	-0.1901468500133311	-0.01762504147780941	0.02155576352148561	0.1162557093701583	-29.26502143585768	-4.508781428309917	0.7475959777989489	1.667586287215887	-439.6836326559896	-72.60157078515695	-5.587990834272182	0.2546032338627065	0.3291815999633061	-0.4572040224425909	-1.075722364888735	0.1362016353509494	-0.7733449384343248	1.37670220483668	-1.534719150732576	-1.534719150732581	-0.1384862062043569	0.01717391795734493	-0.8717865952047811	0.1430702568259013	-4.46021867052422e-07	-1.334819095647969e-06	5.745058287095953e-06	1.709854247703969e-07	-1.251440884804068e-06	-1.976109224613184e-06	-8.090287027335683e-07
0.51	-0.2263969337492255	0.03942056104884681	0.7719842150160698	0.9896134742293421	-0.3679826599409114	0.005629010202447699	-0.4023011188190976	0.9599123382487572	0.959912338248765	-0.04716378167443531	-0.1745325041148703	0.3243581957742649	0.1616737911498941	-0.7537986049788155	-0.1585897788833694	-0.5052288065126896	2.325718383470984	0.03980075578810979	0.5374077218935571	-0.2973134402119582	1.930526199102496	1.930526199102497	0.2857096146389508	-8.719002257724683e-06	0.5206330330077111	0.2728333706836183	-0.1088038461562943	0.02228018459546953	0.001239165307409311	-0.1926154908626598	-0.01891591706939601	0.02254944979838665	0.1196667336652742	-29.7649152530253	-4.828212389105689	0.7704223765446376	1.565629445804649	-442.8894980964924	-73.27044918720145	-4.934006663584559	0.345428629191784	0.3502355546052857	-0.3838963015199371	-1.328838268468922	0.04716304314413751	-0.6438728655303322	1.35757938534687	-1.735341688655251	-1.735341688655564	-0.4215105384916356	-0.007911575724252065	-0.9408029577365733	-0.0165800250354517	-4.270987029473863e-07	-8.33882499734099e-07	5.830797169769657e-06	2.377260061100232e-07	-1.223691465099238e-06	-1.582116454234608e-06	-7.83058005509775e-07
0.52	-0.2339171773090705	0.03785244626719222	0.7669138194492896	1.012801788972483	-0.3675811661938899	0.01096779444309475	-0.4052055629353646	0.9791284970243541	0.9791284970243681	-0.04432352895194114	-0.1745326401812684	0.3295173042487287	0.1644027740611947	-0.7501506302768143	-0.1550024352173769	-0.5087327604764948	2.311612714863714	0.04048720180653761	0.5303084605584429	-0.2835507528950804	1.912420228776701	1.9124202287767	0.2823172160566935	-3.104643525146677e-05	0.5111224526462596	0.2729086030384153	-0.1132409562435173	0.02265226234685122	0.0005080341729437604	-0.1950841317119909	-0.02020679266098574	0.02354313607526959	0.1230777579603848	-30.25753511610156	-5.160401870753303	0.8084042082185662	1.416750918291103	-446.0206118340749	-74.05631226235302	-4.327213190488974	0.3737487685459588	0.3664219124624449	-0.3181556733699556	-1.474363709172346	0.1165265024621278	-0.8282951232657831	1.406258380463029	-1.875830006488777	-1.875830006488777	-0.167456039395993	0.01073472083170064	-0.9516118734108012	0.07319785657313978	-4.000405061950245e-07	-4.772607189964007e-07	5.709439034257613e-06	2.765246134152993e-07	-1.161330664852944e-06	-1.203925582030005e-06	-7.465151364205903e-07
0.53	-0.2413980492918507	0.03632100067928978	0.7618118677913427	1.035839538137087	-0.3671729817332741	0.01623470242378422	-0.4079716291180286	0.9981554672764377	0.998155467276437	-0.04151771361289982	-0.1745327106832605	0.3345794494505797	0.1671311480909476	-0.7459222327306104	-0.1512687135980074	-0.5115379658077966	2.295624213726851	0.04114228818715363	0.5230265103173154	-0.2696472111771163	1.892708431973699	1.892708431973698	0.2788354805892174	1.026931496899963e-06	0.5012405083292396	0.2727121792312684	-0.1179075934097642	0.02364345569414633	-0.0001223124201439668	-0.1972680697038002	-0.0219708893736815	0.02390576422055073	0.1265898100310603	-30.97491201321422	-5.132345455319329	0.7354658523868446	1.56421921087849	-449.2808827787349	-74.10022307502804	-3.766847735368783	0.4625951788935233	0.3796019821527858	-0.2439878823351435	-1.708072294590431	0.03803979947966888	-0.6858222067951515	1.384692936558986	-2.058517503036815	-2.058517503036811	-0.44009008351304	-0.001882583152975928	-1.016414449978485	-0.07479391431682525	-3.742272547333e-07	-1.332738218185466e-07	5.610633812328236e-06	3.141499754477164e-07	-1.102789132890206e-06	-8.369986158129192e-07	-7.140627096462877e-07
0.54	-0.2488335953129215	0.03482744324667673	0.7566854070962178	1.058708006494592	-0.3667586383901283	0.02142725545560971	-0.410598201709694	1.016977386963327	1.016977386963308	-0.03874702718515788	-0.1745327256971098	0.3395407894614343	0.1698558115996373	-0.7410854379349701	-0.1474248041594953	-0.5136345679120899	2.277756553444107	0.04171897831250443	0.515437470785833	-0.2556520346953165	1.871410115737464	1.871410115737463	0.2752914337981562	-1.994881172859913e-05	0.490961414446984	0.2721664988257934	-0.122574230576016	0.02463464904143579	-0.000752659013272845	-0.1994520076956106	-0.02373498608637831	0.02426839236582407	0.1301018621017317	-31.6879898998725	-5.112910625101045	0.6728929751573581	1.67374114846893	-452.480775193392	-74.24768579856482	-3.251882635604691	0.4954282184332549	0.3884594762909735	-0.1764350279682397	-1.850195538348232	0.1008472514091264	-0.8897129813366561	1.424585333230154	-2.193133893135152	-2.193133893135151	-0.179918304113023	0.0001248988370463265	-1.031041786457932	0.003346536907582985	-3.497913895505786e-07	1.967340552505439e-07	5.536780750107342e-06	3.504772788803746e-07	-1.048473174347572e-06	-4.825338434543631e-07	-6.861358786246206e-07
